<svg id="Calque_1" data-name="Calque 1" xmlns="http://www.w3.org/2000/svg" viewBox="0 0 540.72 92.91"><defs><style>.cls-1,.cls-4{fill:#a4185b;}.cls-1,.cls-2{opacity:0.8;}.cls-2,.cls-3{fill:#1d4796;}</style></defs><path class="cls-1" d="M251.69,420.12c0-2.67,1.33-4.93,4-6.78a8.12,8.12,0,0,1,4.47-1.39,8.7,8.7,0,0,1,6.16,2.93A32.35,32.35,0,0,0,276,422a28.74,28.74,0,0,0,12.1,2.31q12-.46,12-9.09a7.36,7.36,0,0,0-4.09-6.78q-4.08-2.31-12.71-4.63a108.66,108.66,0,0,1-14.56-4.93,25.69,25.69,0,0,1-9.71-7.47q-4.08-5-4.08-13.49A20.41,20.41,0,0,1,259.16,365a28,28,0,0,1,11.1-8.48,35.91,35.91,0,0,1,14.56-3,44.79,44.79,0,0,1,15.72,2.92,27.49,27.49,0,0,1,12.33,8.63,8.62,8.62,0,0,1,2,5.55,7.13,7.13,0,0,1-2.93,5.86A7.76,7.76,0,0,1,307,378.2a7.51,7.51,0,0,1-5.55-2.15,19.52,19.52,0,0,0-7.16-5.4,23.78,23.78,0,0,0-9.94-2q-11.72,0-11.71,8.47a7.26,7.26,0,0,0,2.16,5.48,14.74,14.74,0,0,0,5.47,3.23q3.3,1.16,9.32,2.85a102.22,102.22,0,0,1,13.87,4.78,23.77,23.77,0,0,1,9.4,7.55q3.86,5.08,3.85,13.41a20.54,20.54,0,0,1-4.47,13.17,28.16,28.16,0,0,1-11.48,8.56,37.11,37.11,0,0,1-14.41,2.92,52.19,52.19,0,0,1-18.95-3.39,31.44,31.44,0,0,1-14.33-10.94A7.44,7.44,0,0,1,251.69,420.12Z" transform="translate(-129.41 -353.55)"/><path class="cls-1" d="M303.2,420.12q0-4,4-6.78a8.12,8.12,0,0,1,4.47-1.39,8.72,8.72,0,0,1,6.17,2.93,32.35,32.35,0,0,0,9.63,7.09,28.7,28.7,0,0,0,12.1,2.31q12-.46,12-9.09a7.38,7.38,0,0,0-4.09-6.78q-4.08-2.31-12.71-4.63a108.17,108.17,0,0,1-14.56-4.93,25.61,25.61,0,0,1-9.71-7.47q-4.09-5-4.09-13.49A20.36,20.36,0,0,1,310.67,365a27.93,27.93,0,0,1,11.1-8.48,35.91,35.91,0,0,1,14.56-3,44.79,44.79,0,0,1,15.72,2.92,27.55,27.55,0,0,1,12.33,8.63,8.62,8.62,0,0,1,2,5.55,7.16,7.16,0,0,1-2.93,5.86,7.76,7.76,0,0,1-4.93,1.69,7.51,7.51,0,0,1-5.55-2.15,19.61,19.61,0,0,0-7.16-5.4,23.78,23.78,0,0,0-9.94-2q-11.72,0-11.71,8.47a7.25,7.25,0,0,0,2.15,5.48,14.82,14.82,0,0,0,5.47,3.23q3.32,1.16,9.33,2.85A102.71,102.71,0,0,1,355,393.46a23.84,23.84,0,0,1,9.4,7.55q3.84,5.08,3.85,13.41a20.54,20.54,0,0,1-4.47,13.17,28.23,28.23,0,0,1-11.48,8.56,37.11,37.11,0,0,1-14.41,2.92,52.15,52.15,0,0,1-18.95-3.39,31.46,31.46,0,0,1-14.34-10.94A7.5,7.5,0,0,1,303.2,420.12Z" transform="translate(-129.41 -353.55)"/><path class="cls-2" d="M207.39,356.17A9.18,9.18,0,0,1,210,363v65.18a9.27,9.27,0,0,1-2.62,6.71,8.85,8.85,0,0,1-6.63,2.69,8.72,8.72,0,0,1-6.55-2.62,9.72,9.72,0,0,1-2.7-6.62,33.34,33.34,0,0,1-24.19,10.78,35.19,35.19,0,0,1-19.26-5.47,38.22,38.22,0,0,1-13.64-15.18,47.32,47.32,0,0,1-5-22,48.46,48.46,0,0,1,4.93-22.12A37.89,37.89,0,0,1,147.83,359a34.28,34.28,0,0,1,18.87-5.47,35.79,35.79,0,0,1,13.87,2.69,36.48,36.48,0,0,1,10.94,6.86V363a9.29,9.29,0,0,1,2.62-6.71,8.89,8.89,0,0,1,6.63-2.69A9,9,0,0,1,207.39,356.17ZM186,414.8q6.32-7.32,6.32-18.41T186,377.89a21.58,21.58,0,0,0-32.52,0q-6.31,7.41-6.32,18.5t6.24,18.41a20.35,20.35,0,0,0,16.26,7.32A20.6,20.6,0,0,0,186,414.8Z" transform="translate(-129.41 -353.55)"/><path class="cls-2" d="M259.06,357.63q8,4.08,8,10.87a9.29,9.29,0,0,1-2,5.93,6.35,6.35,0,0,1-5.23,2.54,9.86,9.86,0,0,1-4-.69,14.38,14.38,0,0,1-3-1.85A22.07,22.07,0,0,0,250,372.5a19.54,19.54,0,0,0-4.54-1.38,25.62,25.62,0,0,0-4.86-.62q-11.55,0-18.11,7.16t-6.55,18.73q0,11.08,6.63,18.41a21.85,21.85,0,0,0,17,7.32q7.56,0,11.25-1.85a18.87,18.87,0,0,0,2.54-1.61,17.8,17.8,0,0,1,3-1.78,8.32,8.32,0,0,1,3.39-.61,7.82,7.82,0,0,1,6.09,2.46,9.1,9.1,0,0,1,2.23,6.32q0,3.7-4.31,6.94a33.89,33.89,0,0,1-11.41,5.16,57.52,57.52,0,0,1-15.1,1.92,39.1,39.1,0,0,1-20.88-5.54,37.32,37.32,0,0,1-14-15.34,47.71,47.71,0,0,1-4.93-21.8,46.44,46.44,0,0,1,5.17-22.19A37.88,37.88,0,0,1,217,359a40.36,40.36,0,0,1,21-5.47Q251,353.55,259.06,357.63Z" transform="translate(-129.41 -353.55)"/><rect class="cls-3" x="393.73" y="377.21" width="9.48" height="30.96" transform="translate(667.54 431.83) rotate(-180)"/><rect class="cls-4" x="378.57" y="395.15" width="9.39" height="17.73" transform="translate(637.13 454.49) rotate(-180)"/><rect class="cls-3" x="423.69" y="369.12" width="9.48" height="39.05" transform="translate(727.45 423.74) rotate(-180)"/><rect class="cls-4" x="408.71" y="386.87" width="9.48" height="28.97" transform="translate(697.49 449.16) rotate(-180)"/><path class="cls-3" d="M461.05,441.62a4.75,4.75,0,1,1-9.49,0v-6.55h2.29v6.72a2.46,2.46,0,1,0,4.91,0v-6.72h2.29Z" transform="translate(-129.41 -353.55)"/><path class="cls-3" d="M478.13,435.07v11.38h-.77l-6.47-6.91v6.71h-2.28V434.86h.74l6.49,6.87v-6.66Z" transform="translate(-129.41 -353.55)"/><path class="cls-3" d="M488.06,446.25h-2.29V435.07h2.29Z" transform="translate(-129.41 -353.55)"/><path class="cls-3" d="M505.38,435.07l-5,11.38h-.77l-5-11.38h2.59l2.8,6.77,2.77-6.77Z" transform="translate(-129.41 -353.55)"/><path class="cls-3" d="M519.51,437.14h-5.24v2.26h3.86v2h-3.86v2.83h5.45v2.07H512V435.07h7.52Z" transform="translate(-129.41 -353.55)"/><path class="cls-3" d="M533.65,446.25l-2.9-3.95h-1.68v3.95h-2.28V435.07H531c2.36,0,4,1.42,4,3.61a3.42,3.42,0,0,1-2,3.16l3.17,4.41Zm-4.58-6H531a1.61,1.61,0,1,0,0-3.21h-1.91Z" transform="translate(-129.41 -353.55)"/><path class="cls-3" d="M549.83,437l-1.56,1.21a2.48,2.48,0,0,0-2.14-1.29c-.74,0-1.39.34-1.39,1.08s.5.92,1.31,1.29l1.27.56c1.77.78,2.76,1.68,2.76,3.27,0,2.08-1.69,3.35-3.91,3.35a4.82,4.82,0,0,1-4.32-2.47l1.57-1.19a3.29,3.29,0,0,0,2.75,1.63c1,0,1.59-.46,1.59-1.24s-.54-1-1.42-1.39l-1.2-.54c-1.6-.73-2.71-1.64-2.71-3.22,0-1.93,1.6-3.17,3.7-3.17A4,4,0,0,1,549.83,437Z" transform="translate(-129.41 -353.55)"/><path class="cls-3" d="M559.47,446.25h-2.29V435.07h2.29Z" transform="translate(-129.41 -353.55)"/><path class="cls-3" d="M575.52,437.14h-3.6v9.11h-2.28v-9.11h-3.58v-2.07h9.46Z" transform="translate(-129.41 -353.55)"/><path class="cls-3" d="M589.64,437.14H584.4v2.26h3.84v2H584.4v2.83h5.44v2.07h-7.73V435.07h7.53Zm-.74-5.9L586.59,434h-1.66l1.21-3.15h2.76Z" transform="translate(-129.41 -353.55)"/><path class="cls-3" d="M615,438.68c0,2.15-1.68,3.62-4,3.62H609v3.95h-2.28V435.07h4.2C613.29,435.07,615,436.49,615,438.68Zm-6-1.6v3.22h1.92a1.61,1.61,0,1,0,0-3.22Z" transform="translate(-129.41 -353.55)"/><path class="cls-3" d="M627.12,444.79h-4.58l-.62,1.46h-2.46l5-11.39h.76l5,11.39h-2.45Zm-2.29-5.64-1.48,3.76h3Z" transform="translate(-129.41 -353.55)"/><path class="cls-3" d="M643.67,446.25l-2.89-3.95H639.1v3.95h-2.29V435.07H641c2.36,0,4,1.42,4,3.61a3.4,3.4,0,0,1-2,3.16l3.17,4.41Zm-4.57-6H641a1.61,1.61,0,1,0,0-3.21H639.1Z" transform="translate(-129.41 -353.55)"/><path class="cls-3" d="M655,446.25h-2.29V435.07H655Z" transform="translate(-129.41 -353.55)"/><path class="cls-3" d="M669.87,437l-1.56,1.21a2.47,2.47,0,0,0-2.14-1.29c-.74,0-1.38.34-1.38,1.08s.49.92,1.3,1.29l1.28.56c1.76.78,2.76,1.68,2.76,3.27,0,2.08-1.7,3.35-3.92,3.35a4.83,4.83,0,0,1-4.32-2.47l1.58-1.19a3.26,3.26,0,0,0,2.74,1.63c1,0,1.6-.46,1.6-1.24s-.55-1-1.43-1.39l-1.2-.54c-1.6-.73-2.71-1.64-2.71-3.22,0-1.93,1.6-3.17,3.7-3.17A4,4,0,0,1,669.87,437Z" transform="translate(-129.41 -353.55)"/><polygon class="cls-3" points="475.9 3.98 506.21 34.31 506.33 34.19 476.02 3.87 475.9 3.98"/><rect class="cls-3" x="475.97" y="36.11" width="30.52" height="0.17"/><path class="cls-3" d="M618.71,415.53a19.89,19.89,0,0,0-.82,5.65c0,.26,0,.53,0,.79h.33c0-.26,0-.53,0-.79a19.39,19.39,0,0,1,.76-5.42" transform="translate(-129.41 -353.55)"/><path class="cls-3" d="M656,415.76a19.4,19.4,0,0,1,.77,5.42c0,.26,0,.53,0,.79h.32c0-.26,0-.53,0-.79a20.2,20.2,0,0,0-.76-5.48" transform="translate(-129.41 -353.55)"/><polygon class="cls-3" points="476.02 68.47 475.9 68.35 507.06 37.19 507.18 37.3 476.02 68.47"/><polygon class="cls-3" points="540.16 68.27 511.51 39.61 511.63 39.49 540.28 68.15 540.16 68.27"/><rect class="cls-3" x="509.79" y="36.11" width="30.64" height="0.16"/><rect class="cls-3" x="508.08" y="48.34" width="0.17" height="20.08"/><path class="cls-3" d="M605.73,357.85H669.5v63.78H605.73Zm-.57,64.34h64.89v-64.9H605.16Z" transform="translate(-129.41 -353.55)"/><path class="cls-3" d="M637.63,358.14a31.66,31.66,0,0,0-25.82,13.36,31.57,31.57,0,0,0,25.76,49.8h0a31.58,31.58,0,0,0,.06-63.16m-.06,63.73h0a32.14,32.14,0,1,1,26.28-13.6,32,32,0,0,1-26.28,13.6" transform="translate(-129.41 -353.55)"/><path class="cls-3" d="M653.53,374.08a15.64,15.64,0,0,1,12.15,5.78h.41a15.94,15.94,0,0,0-22.43-2.68l.1.34a15.55,15.55,0,0,1,9.77-3.44" transform="translate(-129.41 -353.55)"/><path class="cls-3" d="M653,405.7l.58,0a16,16,0,0,0,16-16,15.82,15.82,0,0,0-2.88-9.13l-.26.19a15.64,15.64,0,0,1-12.85,24.59l-.69,0" transform="translate(-129.41 -353.55)"/><path class="cls-3" d="M667.68,379.86h-1.59c.19.24.38.49.56.75Z" transform="translate(-129.41 -353.55)"/><path class="cls-3" d="M666.38,380.8l.26-.19c-.17-.25-.36-.51-.55-.75h-.41c.25.3.48.62.7.94" transform="translate(-129.41 -353.55)"/><path class="cls-3" d="M652.94,405.69l-.09-.3Z" transform="translate(-129.41 -353.55)"/><path class="cls-3" d="M655.55,413.5l-2.6-7.8a16,16,0,0,1-4.56-.84,19.69,19.69,0,0,1,7.16,8.64" transform="translate(-129.41 -353.55)"/><path class="cls-3" d="M644.5,379.86l-.74-2.34a15.64,15.64,0,0,0,9.08,27.85l-4-11.85,17.49-12.72c-.22-.32-.46-.64-.7-.94Z" transform="translate(-129.41 -353.55)"/><path class="cls-3" d="M637.5,401.56a19.5,19.5,0,0,1,6.82,1.22,16,16,0,0,1-.66-25.6l-6.09-19.27-7,21.95H607.62l18.54,13.56-6.69,20a19.62,19.62,0,0,1,18-11.89" transform="translate(-129.41 -353.55)"/><path class="cls-3" d="M656.15,415.3l-.23.16a19.29,19.29,0,0,0-36.81-.13l-.2-.16-.16.46,18.82-13.74,18.74,13.87Z" transform="translate(-129.41 -353.55)"/><path class="cls-3" d="M618.84,415.12l.07.05.56-1.72c-.23.54-.44,1.1-.63,1.67" transform="translate(-129.41 -353.55)"/><path class="cls-3" d="M656.2,415.26a16.18,16.18,0,0,0-.65-1.76l.6,1.8Z" transform="translate(-129.41 -353.55)"/><rect class="cls-3" x="633.8" y="372.3" width="42.28" height="0.17" transform="translate(-200.76 219.14) rotate(-45.04)"/><path class="cls-3" d="M459.23,364.21v24h14.59c8.35,0,12.67-5,12.67-12s-4.32-12-12.67-12Zm35,11.89c0,11-7.77,19-20.25,19H459.23v27.11h-7.48V357.33H474c12.48,0,20.25,7.86,20.25,18.77" transform="translate(-129.41 -353.55)"/><path class="cls-3" d="M542.22,367.26l-5.46,4.22a17.22,17.22,0,0,0-14.5-8.15c-5.85,0-11.23,3-11.23,9.43,0,5.9,4.41,8.06,10.18,10.91l7,3.44c9.22,4.51,14.77,9.33,14.77,18.08,0,10.9-8.72,18.08-20.43,18.08-10.07,0-18.42-5.41-23.32-14l5.57-4.23c3.84,6,9.5,11.11,17.66,11.11,7.48,0,12.76-4.22,12.76-10.81,0-6-4.32-8.35-10.56-11.4l-7.1-3.44c-7.39-3.63-14.3-8.25-14.3-17.39,0-10.31,8.83-16.9,19.1-16.9a23.3,23.3,0,0,1,19.86,11" transform="translate(-129.41 -353.55)"/><polygon class="cls-3" points="426.87 3.79 426.87 68.64 464.39 68.64 464.39 61.76 434.35 61.76 434.35 3.79 426.87 3.79"/></svg>